<?xml version="1.0" encoding="UTF-8"?><svg id="_레이어_2" xmlns="http://www.w3.org/2000/svg" viewBox="0 0 1513.085 311.281"><defs><style>.cls-1{fill:#f6c8dd;}</style></defs><g id="_레이어_1-2"><path class="cls-1" d="M56.918,62.918l13.638-13.629,9.16,13.629-9.16,10.601-13.638-10.601Z"/><path class="cls-1" d="M192.081,62.918l10.699-13.139,9.556,13.139-9.556,11.205-10.699-11.205Z"/><path class="cls-1" d="M70.664,238.872l-35.299-9.578-23.062-29.085-8.246-34.47L0,132.573l1.557-34.828,14.011-32.115,21.459-27.463,33.429-14.213,34.206,13.336,22.06,28.115,9.991,33.556,4.371,33.013-.262,35.073-13.608,32.837-22.178,28.324-34.37,10.663ZM42.247,218.854l28.194,7.647,27.531-8.538,18.888-24.125,12.1-29.199.239-31.927-4.202-31.721-9.009-30.023-18.668-23.791-26.67-10.399-26.153,11.118-18.642,23.863-12.531,28.719-1.413,31.635,3.896,31.846,7.434,30.923,19.007,23.972Z"/><path class="cls-1" d="M202.724,241.846l-34.524-14.097-21.15-28.716-10.742-32.77-7.19-33.923,7.281-34.152,8.629-33.593,23.35-27.916,34.665-12.763,32.255,14.988,25.921,24.902,9.39,34.584,2.151,33.969-.09,34.633-13.988,32.417-20.974,28.828-34.981,13.61ZM175.783,218.014l27.048,11.044,27.32-10.626,18.143-24.944,12.499-28.965.086-31.999-2.049-32.18-8.216-30.25-22.12-21.25-25.981-12.074-27.06,9.96-19.591,23.424-7.926,30.869-6.675,31.322,6.598,31.139,9.881,30.032,18.041,24.498Z"/><polygon class="cls-1" points="154.802 34.586 147.289 25.385 171.184 5.886 203.107 .478 233.243 8.445 258.709 23.997 252.519 34.136 228.533 19.489 202.555 12.622 176.261 17.074 154.802 34.586"/><polygon class="cls-1" points="121.758 32.802 97.047 18.134 70.567 12.158 43.978 17.788 19.178 32.463 13.127 22.241 39.607 6.573 70.646 0 101.492 6.96 127.821 22.584 121.758 32.802"/><path class="cls-1" d="M364.682,226.028l8.087-9.875,9.262,9.875-9.262,9.276-8.087-9.276ZM377.484,202.458l-11.125.57.072-41.036-.469-40.749,12.698.332,1.234,40.426-2.41,40.457Z"/><path class="cls-1" d="M527.03,226.028l10.705-9.068,9.099,9.068-9.099,12.039-10.705-12.039ZM544.931,203.292l-12.841-.522-.529-40.781-3.229-41.691,15.242,1.296,1.112,40.407.246,41.291Z"/><path class="cls-1" d="M537.893,311.281l-34.44-12.731-27.461-23.143-13.642-32.774-9.677-32.579-4.39-33.797,4.807-34.173,7.313-33.54,18.865-29.51,22.719-26.99,35.944-8.942,34.213,10.868,25.229,24.672,15.953,30.675,9.181,33.009,5.84,34.129-7.728,33.79-8.056,32.962-13.965,31.728-27.438,22.12-33.266,14.227ZM509.518,288.128l28.055,10.369,27.405-11.721,23.911-19.276,12.587-28.596,7.578-31.38,7.181-31.405-5.385-31.491-8.633-30.927-14.505-27.895-21.856-21.368-28.32-8.997-28.941,7.202-19.986,23.742-17.051,26.758-6.814,31.252-4.476,31.923,4.123,31.728,9.248,30.883,12.209,29.25,23.67,19.951Z"/><path class="cls-1" d="M372.389,307.882l-32.867-10.74-26.814-22.587-16.661-31.053-6.761-33.299-6.698-33.967,7.243-33.835,6.111-33.271,16.146-31.145,25.153-25.86,35.756-9.895,33.909,12.139,26.115,23.524,17.577,30.661,6.847,34.57,2.766,67.525-12.434,32.719-14.22,31.078-25.236,26.44-35.932,6.995ZM345.405,286.567l27.74,9.065,29.194-5.682,21.245-22.259,13.308-29.085,11.345-29.89-2.645-64.651-6.262-31.282-15.67-27.334-22.965-20.684-28.159-10.079-29.027,8.03-21.682,22.296-14.522,28.013-5.826,31.695-6.768,31.614,6.223,31.54,6.406,31.554,14.758,27.508,23.306,19.631Z"/><polygon class="cls-1" points="308.905 60.924 298.502 55.194 313.311 28.313 338.795 9.132 369.479 1.724 402.395 5.121 430.942 23.389 446.633 51.472 436.262 57.268 422.028 31.788 398.367 16.647 370.287 13.751 343.974 20.102 322.489 36.275 308.905 60.924"/><polygon class="cls-1" points="602.258 60.818 588.154 36.032 567.097 18.7 540.262 12.589 511.573 15.106 487.959 31.046 474.342 57.129 463.814 51.63 478.822 22.883 507.476 3.543 541.083 .594 572.475 7.74 597.393 28.255 612.583 54.943 602.258 60.818"/><path class="cls-1" d="M923.814,98.204l32.463,3.666,1.634,10.248-19.518-1.025-3.049,29.735,2.884,30.562-12.544-.344.051-35.657-1.921-37.186Z"/><path class="cls-1" d="M1085.916,171.902l-32.876.469.039-12.827,18.862.044,3.331-29.625-1.47-29.955,12.681-.824-.441,36.199-.127,36.519Z"/><path class="cls-1" d="M1153.481,92.432c-.986,0-1.984-.244-2.905-.761l-26.197-14.721-28.004-7.469-28.382,5.308-25.018,16.561c-2.733,1.807-6.42,1.063-8.232-1.675-1.81-2.735-1.06-6.42,1.675-8.232l27.023-17.888,33.394-6.246,32.055,8.55,27.505,15.454c2.861,1.608,3.875,5.227,2.269,8.088-1.09,1.94-3.107,3.03-5.183,3.03Z"/><path class="cls-1" d="M1022.544,94.439c-1.374,0-2.752-.473-3.875-1.438l-21.522-18.54-27.503-3.705-27.572,4.942-24.347,15.686c-2.752,1.775-6.431.984-8.209-1.777-1.777-2.756-.981-6.431,1.777-8.209l26.343-16.972,31.749-5.694,32.844,4.424,24.194,20.842c2.485,2.141,2.763,5.893.624,8.378-1.176,1.364-2.835,2.063-4.503,2.063Z"/><path class="cls-1" d="M967.044,239.067l-33.25-13.157-21.327-27.445-11.209-32.041-3.267-33.5,4.23-33.227,11.373-31.394,19.775-28.561,33.693-12.466,34.21,11.598,22.109,28.006,9.654,32.902,6.241,33.004-3.842,34.229-11.661,32.626-22.744,27.252-33.985,12.174ZM941.181,216.058l26.071,10.318,26.728-9.575,19.32-23.15,10.482-29.331,3.489-31.083-5.854-30.955-8.784-29.842-18.508-23.445-26.893-9.116-26.231,9.705-16.763,24.213-10.399,28.707-3.896,30.596,2.998,30.749,10.095,28.862,18.143,23.348Z"/><path class="cls-1" d="M1096.614,241.405l-32.784-16.134-24.603-25.169-10.088-33.825-4.617-33.442,6.622-33.317,8.401-33.05,23.213-27.227,33.902-12.536,32.964,13.522,23.164,26.32,11.213,33.236,4.355,33.419-6.682,33.851-11.318,31.043-21.183,26.489-32.561,16.821ZM1070.902,215.513l25.582,12.589,24.992-12.909,18.389-22.995,10.489-28.777,5.974-30.6-4.03-30.916-9.988-29.285-19.768-22.459-26.106-10.71-26.649,9.854-19.413,22.767-7.68,30.22-6.132,30.895,4.281,31.009,8.921,29.693,21.136,21.624Z"/><polygon class="cls-1" points="1048.135 32.93 1041.128 23.338 1065.756 5.343 1096.526 1.603 1127.544 4.596 1153.388 21.751 1146.817 31.649 1123.446 16.137 1096.674 13.552 1070.262 16.763 1048.135 32.93"/><polygon class="cls-1" points="1015.105 33.54 993.206 17.512 967.202 14.195 941.014 17.584 917.597 32.366 911.258 22.32 936.889 6.141 967.192 2.218 997.748 6.116 1022.121 23.953 1015.105 33.54"/><path class="cls-1" d="M710.4,141.809l44.729-.21.366,11.736-17.182-.92,2.5,30.574-1.78,30.349-11.188.233,2.169-30.582-2.792-29.88-7.743-.694-.529,30.574,1.412,30.227-10.806.304.882-35.964-.04-35.747Z"/><path class="cls-1" d="M885.31,209.515l-43.321,1.406-1.228-12.191,18.786,2.626-1.629-29.158,2.238-27.506,7.811-.717.749,28.223-.937,28.378,8.928-.026-.301-28.352-.141-28.345,11.188-.197,1.276,33.942-3.418,31.918Z"/><path class="cls-1" d="M784.957,137.61c-2.093,0-4.125-1.109-5.206-3.072-1.582-2.875-.538-6.487,2.334-8.069l26.584-14.652,30.744-7.545,31.164,6.485,27.74,14.097c2.923,1.485,4.09,5.06,2.603,7.986-1.483,2.923-5.058,4.093-7.986,2.603l-26.329-13.378-26.974-5.612-26.605,6.529-25.206,13.891c-.909.501-1.893.738-2.863.738Z"/><path class="cls-1" d="M768.591,137.496c-.937,0-1.889-.223-2.775-.694l-26.519-14.044-27.698-7.789-28.206,6.197-27.403,13.842c-2.928,1.48-6.499.304-7.979-2.624-1.478-2.928-.304-6.501,2.624-7.979l28.744-14.519,32.572-7.158,31.781,8.939,27.642,14.638c2.9,1.534,4.005,5.13,2.469,8.028-1.065,2.014-3.123,3.162-5.253,3.162Z"/><path class="cls-1" d="M711.933,282.288l-34.904-9.608-22.12-28.477-11.74-32.51-4.158-34.227,5.554-34.125,10.294-32.352,22.744-27.916,34.382-9.397,31.918,11.721,25.392,25.167,7.503,34.493,3.246,32.528-.021,33.609-11.267,33.322-23.907,26.262-32.918,11.508ZM683.99,262.277l27.521,7.575,26.579-9.294,20.208-22.197,9.847-29.122.021-31.359-3.151-31.289-6.573-30.057-21.062-20.874-25.923-9.522-27.05,7.392-18.911,23.215-9.475,29.779-5.014,31.176,3.791,31.224,10.645,29.475,18.547,23.879Z"/><path class="cls-1" d="M841.408,284.284l-34.015-13.137-22.327-27.153-12.58-32.206-4.116-34.301,5.172-34.034,13.035-31.255,19.925-29.18,34.916-10.926,32.493,13.355,21.278,26.992,11.188,31.839,3.629,33.099-1.385,34.004-13.603,31.591-21.691,25.872-31.918,15.438ZM814.585,261.189l26.294,10.158,24.981-12.083,18.935-22.587,12.044-27.972,1.26-30.918-3.383-30.858-10.079-28.688-18.127-22.993-25.64-10.538-26.883,8.415-16.914,24.767-12.004,28.786-4.712,30.997,3.745,31.199,11.341,29.036,19.143,23.278Z"/><polygon class="cls-1" points="792.34 77.597 785.904 67.611 811.001 51.442 840.933 46.066 872.341 48.936 897.56 67.036 890.632 76.687 868.039 60.472 841.453 58.043 815.437 62.713 792.34 77.597"/><polygon class="cls-1" points="662.317 76.653 655.459 66.954 680.465 49.268 711.841 43.141 742.784 49.878 768.269 66.558 761.763 76.497 738.116 61.02 711.711 55.27 685.245 60.437 662.317 76.653"/><path class="cls-1" d="M1287.533,98.182l12.342.057-12.286,31.392-9.443,33.445-11.515,32.668-13.519,32.39-16.727-.859,12.556-32.672,15.118-31.262,12.026-32.487,11.446-32.674Z"/><path class="cls-1" d="M1444.642,97.873l13.784.297-11.848,32.047-13.709,31.793-11.519,32.667-11.72,32.648-16.243-.016,14.403-32.172,10.239-33.158,15.301-31.222,11.314-32.883Z"/><polygon class="cls-1" points="1488.986 42.284 1458.177 40.333 1427.368 41.73 1395.696 41.955 1364.244 38.633 1365.492 26.818 1396.28 30.071 1427.057 29.858 1458.284 28.436 1489.738 30.429 1488.986 42.284"/><path class="cls-1" d="M1427.164,281.026l-33.612-6.828-22.6-26.269-15.983-28.113-10.849-30.635-3.274-33.296,5.362-32.547,7.146-31.735,15.902-29.461,24.143-24.373,33.698-9.538,34.085,9.441,22.146,26.598,15.631,28.118,11.225,30.577,2.902,33.171-3.55,32.999-7.462,31.876-15.837,30.171-26.28,22.621-32.793,7.223ZM1399.881,263.363l27.185,5.52,27.41-6.035,22.294-19.192,14.083-26.825,7.03-30.041,3.267-30.765-2.666-30.452-10.515-28.651-14.74-26.368-18.781-22.419-27.315-7.568-27.494,7.784-20.742,20.939-14.315,26.519-6.749,29.969-5.011,30.498,2.977,30.303,10.188,28.767,14.988,26.18,18.907,21.837Z"/><path class="cls-1" d="M1269.582,285.692l-33.078-12.512-24.593-23.104-16.137-29.524-6.568-31.92-6.285-32.236,3.046-33.781,8.487-31.684,16.141-30.136,27.192-20.89,31.916-8.786,31.712,9.436,24.992,22.218,15.222,29.862,9.698,30.865,1.251,32.716-2.759,32.433-6.891,31.767-16.413,28.911-23.313,24.343-33.621,12.023ZM1242.917,262.906l26.781,10.127,26.865-9.605,20.352-21.252,14.789-26.048,6.424-29.621,2.552-30.561-1.162-30.405-9.069-28.865-13.596-26.503-21.357-18.988-25.918-7.71-26.398,7.264-23.317,17.916-14.29,26.675-7.995,29.855-2.675,30.579,5.951,30.533,6.197,30.12,14.373,26.299,21.494,20.19Z"/><polygon class="cls-1" points="1215.099 38.324 1210.032 27.582 1258.142 4.893 1294.412 17.079 1329.31 26.519 1326.205 37.985 1290.798 28.396 1258.889 17.677 1215.099 38.324"/></g></svg>