<?xml version="1.0" encoding="UTF-8"?><svg id="_레이어_2" xmlns="http://www.w3.org/2000/svg" viewBox="0 0 515.947 716.821"><defs><style>.cls-1{fill:none;}.cls-2{fill:#f7c9dd;}.cls-3{fill:#47ac49;}</style></defs><g id="_레이어_1-2"><polygon class="cls-1" points="309.637 703.334 328.869 702.692 328.93 702.688 309.575 702.688 309.637 703.334"/><polygon class="cls-1" points="116.24 704.043 151.361 703.739 186.845 704.198 209.746 702.966 209.791 702.688 105.765 702.688 116.24 704.043"/><polygon class="cls-1" points="435.886 703.796 471.079 703.062 475.996 702.688 405.581 702.688 435.886 703.796"/><polygon class="cls-3" points="499.474 503.698 471.511 496.436 436.917 485.171 402.89 474.917 366.302 474.232 338.866 470.882 347.205 498.992 345.175 536.396 335.967 569.28 317.378 609.9 286.767 570.502 285.352 573.429 289.219 609.909 300.077 640.766 306.758 673.066 309.575 702.688 328.93 702.688 364.715 699.878 364.865 699.889 400.664 702.508 405.581 702.688 475.996 702.688 499.591 700.889 499.524 672.903 498.194 638.062 497.816 602.62 497.829 602.501 501.617 567.975 497.966 533.216 499.474 503.698"/><polygon class="cls-3" points="314.568 585.715 324.283 564.485 332.704 534.137 334.487 500.496 328.274 479.551 313.374 493.949 289.875 515.257 271.948 533.322 295.138 560.711 314.568 585.715"/><polygon class="cls-3" points="193.205 534.042 202.206 564.22 211.443 585.344 229.324 559.245 251.999 533.152 234.867 516.13 213.13 493.145 197.721 478.969 191.228 500.481 193.205 534.042"/><polygon class="cls-3" points="258.717 463.24 203.189 466.859 222.146 484.313 243.899 507.319 262.065 525.366 281.275 506.02 304.729 484.759 321.308 468.736 294.451 465.455 258.717 463.24"/><polygon class="cls-3" points="245.083 700.669 258.22 699.732 262.599 700.239 274.005 699.959 296.549 699.012 294.229 674.608 287.81 643.751 276.826 612.717 276.801 612.482 273.878 584.909 249.476 585.831 240.745 611.89 235.943 644.675 226.869 675.67 223.181 698.814 244.071 700.694 245.083 700.669"/><polygon class="cls-3" points="209.791 702.688 214.646 672.509 223.707 641.559 228.417 608.958 228.475 608.787 237.616 581.505 234.676 573.707 209.006 611.274 190.223 568.196 180.693 536.246 178.497 498.984 187.892 467.856 186.878 467.923 151.077 471.982 115.399 475.022 80.85 487.374 45.793 494.229 13.873 507.438 17.02 532.803 15.907 568.037 16.97 603.17 16.934 603.557 13.678 638.177 13.96 672.789 14.734 701.849 44.53 700.861 80.584 699.43 80.752 699.451 105.765 702.688 209.791 702.688"/><polygon class="cls-3" points="272.545 570.926 277.472 560.729 260.658 542.722 243.889 562.371 247.982 573.229 272.545 570.926"/><polygon class="cls-3" points="210.99 234.312 209.095 212.523 187.272 211.063 166.439 213.899 163.082 234.549 165.572 255.877 186.97 258.065 207.702 254.992 210.99 234.312"/><path class="cls-3" d="M261.689,235.06l5.066,30.645,11.751,31.367,18.68,26.482,28.114,13.324,28.051-13.573,19.569-26.181,14.14-30.809,4.072-33.994-3.079-34.366-11.948-32.061-21.03-25.998-29.507-12.156-28.231,13.986-20.481,25.18-9.8,32.113-5.392,31.074.273,2.218-.019.213-.229,2.535ZM295.484,204.464l29.661-4.04,31.951,2.139,2.794,32.128-.02.121-4.692,29.517-29.73,4.408-31.17-3.188-3.647-31.238,4.854-29.846Z"/><polygon class="cls-3" points="301.322 234.549 303.812 255.877 325.208 258.065 345.939 254.992 349.228 234.312 347.333 212.523 325.511 211.063 304.679 213.899 301.322 234.549"/><path class="cls-3" d="M503.067,183.294l-.664-34.343-2.414-35.058-.597-34.936-1.243-35.202.011-.121,2.531-29.326-29.226-1.626-35.496,2.993-.119-.004-35.813-1.245-35.4-.771-35.42.418-35.668-.222-35.405-1.069-35.608,2.292-.113-.005-35.279-1.727-35.817,4.096-.245-.033-35.377-4.712-35.39,3.25-.173-.015-35.318-2.863-28.168,3.115-1.628,27.91.259,34.506,2.892,35.405-.031.219-4.805,34.573,4.495,34.899.086,35.113-.009.169-1.841,35.111-3.161,34.483,2.712,34.874-2.553,35.137.531,34.445,2.938,35.076.995,35.461-.022.164-4.203,30.284,28.824-11.928.196-.038,35.627-6.967,34.727-12.493,37.147-3.162,36.026-4.08,72.843-4.749,37.097,2.31,71.71,8.761,37.354.665,35.831,10.799,34.542,11.247,24.386,6.324-.543-27.41-.354-34.999.021-35.002-.622-35.036.01-.212,1.789-34.95,1.016-34.964,2.331-34.353-5.034-35.156,4.835-35.325ZM373.003,104.558l17.774,3.998-2.762,12.284-17.774-3.998,2.762-12.284ZM299.843,106.551l35.011-12.008,28.387,6.429-2.781,12.279-24.9-5.639-32.239,11.042-36.298,9.769-3.271-12.158,36.092-9.714ZM176.683,92.015l37.361,9.708,35.791,11.554-3.868,11.982-35.615-11.498-32.473-8.429-23.539,10.888-5.284-11.429,27.627-12.776ZM139.341,108.868l4.946,11.579-16.736,7.148-4.947-11.578,16.737-7.149ZM403.764,232.718l-4.438,37.055-15.647,33.988-22.082,29.54-.438.213-32.592,15.771,17.092,12.028-14.447,34.265-51.081-21.115-42.508-8.464,2.148-10.789,43.564,8.675,41.983,17.355,6.76-16.032-34.959-24.604-46.996-13.193,2.973-10.59,29.843,8.378-15.654-22.193-.091-.24-10.545-28.147-9.967,29.124-22.408,31.382-37.262,11.463-36.333-12.112-25.07-29.456-.122-.369-11.856-35.664-.859-36.453-.6-36.929,12.604-36.105.196-.255,23.879-31.1,38.248-11.17,38.279,11.293,23.073,32.18.092.369,7.666,30.611,9.322-30.552,23.765-29.216.39-.192,35.403-17.539,37.752,15.554,24.346,30.093,13.256,35.572.024.268,3.323,37.097-.025.208Z"/><path class="cls-3" d="M248.939,229.788l-3.828-31.033-8.288-32.916-19.158-26.721-30.584-9.023-30.75,8.98-20.336,26.484-11.198,32.079.562,34.656.813,34.509,10.613,31.92,21.205,24.917,29.176,9.727,29.337-9.025,18.861-26.417,10.869-31.764,2.77-30.633-.519-3.139.058-.335.396-2.267ZM221.634,234.812l-4.693,29.517-29.73,4.408-31.171-3.188-3.648-31.238,4.854-29.846,29.662-4.04,31.951,2.139,2.795,32.128-.02.121Z"/><path class="cls-2" d="M513.535,288.82l2.397-35.307.015-.211-4.972-34.724,4.707-34.394.021-.154-.689-35.53-2.409-34.984-.597-34.889-1.22-34.552,3.595-41.644L471.286.033l-35.63,3.005-35.262-1.227-35.574-.774h-.098s-35.541.418-35.541.418l-35.402-.219-35.851-1.085-35.492,2.284-35.704-1.747-35.289,4.035L116.185.029l-.223-.029-35.716,3.277L44.638.391,4.676,4.808l-2.268,38.897-.004.065.264,35.155,2.817,34.717L.607,148.739l4.609,35.388.086,34.367-1.81,34.604L.246,288.483l2.72,34.994-2.517,34.657-.006.088.542,35.216,2.944,35.193.961,34.237-4.891,35.24,4.375,35.275-1.093,34.645,1.051,34.74-3.251,34.556-.028.315.289,35.369,1.116,41.871,42.531-1.408,35.03-1.391,35.46,4.587,35.854-.311,35.569.462h.205s35.868-1.931,35.868-1.931l22.597-1.609,16.453-.403,31.198,3.609.147.018,36.105-1.206,35.27-2.764,35.148,2.57,35.896,1.316,35.728-.745,40.721-3.096-.096-39.857-1.332-34.913-.368-34.566,3.868-35.238-3.693-35.128,1.761-34.45.012-.224-.696-35.102-.353-34.869.02-35.05-.616-34.723,1.784-34.862,1.006-34.777ZM497.829,602.501l-.013.119.378,35.442,1.33,34.841.066,27.985-23.595,1.799-4.917.375-35.193.733-30.305-1.108-4.917-.18-35.799-2.619-.15-.011-35.785,2.81-.061.005-19.232.642-.062-.646-2.817-29.621-6.681-32.301-10.858-30.856-3.867-36.48,1.415-2.927,30.611,39.398,18.589-40.62,9.208-32.884,2.03-37.404-8.339-28.11,27.436,3.351,36.588.685,34.027,10.254,34.594,11.265,27.963,7.263-1.508,29.518,3.651,34.759-3.788,34.526ZM80.584,699.43l-36.054,1.432-29.796.987-.774-29.06-.282-34.612,3.256-34.62.036-.387-1.062-35.133,1.112-35.234-3.146-25.365,31.92-13.209,35.057-6.854,34.55-12.352,35.678-3.04,35.801-4.06,1.014-.066-9.395,31.128,2.196,37.262,9.529,31.95,18.783,43.078,25.67-37.567,2.94,7.798-9.142,27.282-.058.171-4.71,32.601-9.062,30.95-4.855,30.179-.045.278-22.901,1.232-35.483-.459-35.121.304-10.475-1.355-25.013-3.236-.168-.021ZM260.658,542.722l16.813,18.008-4.927,10.196-24.562,2.304-4.094-10.858,16.77-19.649ZM213.13,493.145l21.737,22.985,17.132,17.022-22.675,26.093-17.881,26.099-9.237-21.124-9.001-30.178-1.978-33.561,6.493-21.513,15.409,14.176ZM304.729,484.759l-23.453,21.261-19.21,19.347-18.166-18.047-21.754-23.006-18.956-17.454,55.527-3.619,35.734,2.215,26.856,3.281-16.579,16.022ZM271.948,533.322l17.927-18.065,23.499-21.308,14.9-14.398,6.213,20.945-1.783,33.641-8.421,30.349-9.715,21.229-19.431-25.004-23.189-27.389ZM226.869,675.67l9.074-30.995,4.802-32.785,8.73-26.059,24.402-.922,2.923,27.573.025.234,10.983,31.034,6.419,30.857,2.32,24.403-22.544.947-11.406.28-4.379-.507-13.137.937-1.012.025-20.891-1.88,3.688-23.145ZM500.936,288.128l-1.016,34.964-1.789,34.95-.01.212.622,35.036-.021,35.002.354,34.999.543,27.41-24.386-6.324-34.542-11.247-35.831-10.799-37.354-.665-71.71-8.761-37.097-2.31-72.843,4.749-36.026,4.08-37.147,3.162-34.727,12.493-35.627,6.967-.196.038-28.824,11.928,4.203-30.284.022-.164-.995-35.461-2.938-35.076-.531-34.445,2.553-35.137-2.712-34.874,3.161-34.483,1.841-35.111.009-.169-.086-35.113-4.495-34.899,4.805-34.573.031-.219-2.892-35.405-.259-34.506,1.628-27.91,28.168-3.115,35.318,2.863.173.015,35.39-3.25,35.377,4.712.245.033,35.817-4.096,35.279,1.727.113.005,35.608-2.292,35.405,1.069,35.668.222,35.42-.418,35.4.771,35.813,1.245.119.004,35.496-2.993,29.226,1.626-2.531,29.326-.011.121,1.243,35.202.597,34.936,2.414,35.058.664,34.343-4.835,35.325,5.034,35.156-2.331,34.353Z"/><path class="cls-2" d="M400.441,195.146l-13.256-35.572-24.346-30.093-37.752-15.554-35.403,17.539-.39.192-23.765,29.216-9.322,30.552-7.666-30.611-.092-.369-23.073-32.18-38.279-11.293-38.248,11.17-23.879,31.1-.196.255-12.604,36.105.6,36.929.859,36.453,11.856,35.664.122.369,25.07,29.456,36.333,12.112,37.262-11.463,22.408-31.382,9.967-29.124,10.545,28.147.091.24,15.654,22.193-29.843-8.378-2.973,10.59,46.996,13.193,34.959,24.604-6.76,16.032-41.983-17.355-43.564-8.675-2.148,10.789,42.508,8.464,51.081,21.115,14.447-34.265-17.092-12.028,32.592-15.771.438-.213,22.082-29.54,15.647-33.988,4.438-37.055.025-.208-3.323-37.097-.024-.268ZM261.663,230.094l5.392-31.074,9.8-32.113,20.481-25.18,28.231-13.986,29.507,12.156,21.03,25.998,11.948,32.061,3.079,34.366-4.072,33.994-14.14,30.809-19.569,26.181-28.051,13.573-28.114-13.324-18.68-26.482-11.751-31.367-5.066-30.645.229-2.535.019-.213-.273-2.218ZM249.004,235.528l-2.77,30.633-10.869,31.764-18.861,26.417-29.337,9.025-29.176-9.727-21.205-24.917-10.613-31.92-.813-34.509-.562-34.656,11.198-32.079,20.336-26.484,30.75-8.98,30.584,9.023,19.158,26.721,8.288,32.916,3.828,31.033-.396,2.267-.058.335.519,3.139Z"/><path class="cls-2" d="M186.907,200.424l-29.662,4.04-4.854,29.846,3.648,31.238,31.171,3.188,29.73-4.408,4.693-29.517.02-.121-2.795-32.128-31.951-2.139ZM165.572,255.877l-2.49-21.328,3.357-20.649,20.833-2.836,21.822,1.46,1.896,21.788-3.288,20.681-20.732,3.073-21.397-2.188Z"/><path class="cls-2" d="M325.448,268.736l29.73-4.408,4.692-29.517.02-.121-2.794-32.128-31.951-2.139-29.661,4.04-4.854,29.846,3.647,31.238,31.17,3.188ZM347.333,212.523l1.895,21.788-3.288,20.681-20.731,3.073-21.396-2.188-2.489-21.328,3.356-20.649,20.832-2.836,21.822,1.46Z"/><rect class="cls-2" x="374.214" y="103.589" width="12.591" height="18.219" transform="translate(187.055 459.201) rotate(-77.323)"/><polygon class="cls-2" points="303.319 118.654 335.559 107.612 360.459 113.251 363.24 100.972 334.854 94.543 299.843 106.551 263.751 116.265 267.021 128.423 303.319 118.654"/><rect class="cls-2" x="124.346" y="111.937" width="18.2" height="12.591" transform="translate(-35.718 61.927) rotate(-23.131)"/><polygon class="cls-2" points="177.879 105.332 210.352 113.761 245.967 125.259 249.835 113.276 214.044 101.723 176.683 92.015 149.056 104.791 154.34 116.22 177.879 105.332"/></g></svg>