<?xml version="1.0" encoding="UTF-8"?><svg id="_레이어_2" xmlns="http://www.w3.org/2000/svg" viewBox="0 0 515.948 716.822"><defs><style>.cls-1{fill:#f7c9dd;}.cls-2{fill:#47ac49;}</style></defs><g id="_레이어_1-2"><polygon class="cls-2" points="260.658 542.722 243.889 562.372 247.983 573.23 272.547 570.926 277.473 560.73 260.658 542.722"/><polygon class="cls-2" points="314.568 585.715 324.284 564.485 332.705 534.138 334.487 500.496 328.274 479.552 313.375 493.95 289.875 515.258 271.948 533.323 295.139 560.712 314.568 585.715"/><polygon class="cls-2" points="258.718 463.241 203.189 466.86 222.146 484.314 243.9 507.32 262.065 525.367 281.276 506.02 304.73 484.758 321.309 468.737 294.451 465.456 258.718 463.241"/><polygon class="cls-2" points="245.084 700.67 258.22 699.733 262.6 700.24 274 699.96 296.55 699.013 294.229 674.609 287.81 643.751 276.826 612.718 276.801 612.483 273.878 584.909 249.477 585.832 240.745 611.892 235.943 644.676 226.869 675.671 223.181 698.815 244.072 700.694 245.084 700.67"/><polygon class="cls-2" points="499.474 503.699 471.512 496.437 436.918 485.172 402.89 474.918 366.302 474.233 338.867 470.883 347.206 498.993 345.175 536.397 335.967 569.281 317.378 609.9 286.767 570.503 285.352 573.43 289.22 609.91 300.078 640.767 306.758 673.067 309.637 703.335 328.869 702.693 364.716 699.879 364.866 699.89 400.664 702.509 435.886 703.797 471.08 703.063 499.591 700.89 499.525 672.903 498.195 638.063 497.816 602.621 497.829 602.502 501.618 567.976 497.966 533.217 499.474 503.699"/><polygon class="cls-2" points="223.707 641.56 228.418 608.959 228.476 608.788 237.616 581.506 234.676 573.708 209.006 611.275 190.224 568.197 180.693 536.247 178.498 498.985 187.892 467.857 186.879 467.924 151.077 471.983 115.399 475.022 80.85 487.374 45.793 494.229 13.874 507.437 17.02 532.804 15.907 568.038 16.97 603.167 16.936 603.551 13.678 638.178 13.961 672.79 14.735 701.85 44.53 700.862 80.584 699.431 80.752 699.452 116.24 704.044 151.361 703.739 186.846 704.199 209.747 702.966 214.646 672.51 223.707 641.56"/><polygon class="cls-2" points="193.205 534.043 202.207 564.221 211.444 585.345 229.325 559.246 251.999 533.153 234.868 516.131 213.128 493.144 197.721 478.97 191.229 500.482 193.205 534.043"/><path class="cls-2" d="M373.145,309.687l10.808-16.205,4.655-19.784,7.264-18.274-.494-19.051-3.346-19.868-3.02-20.055-4.26-19.27-8.134-16.924-14.561-12.42-15.248-10.227-16.91-3.678-17.007,2.634-14.461,10.914-13.365,13.669-9.458,16.688-6.088,18.468-2.678,19.834-1.794,15.295.779,3.708-.283,22.259-.197.979,6.437,16.149,4.732,19.061,9.284,16.649,12.007,14.516,15.281,9.859,17.312,4.213,17.656-2.549,14.765-10.283,10.323-16.308ZM348.764,239.592l-13.468,4.209-20.495-9.581-13.344-8.663-12.23,14.975-9.299-2.191,7.865-15.593,15.045-7.922,17.068,9.379,16.211,8.282,11.762-14.799,9.515,1.85-8.631,20.055Z"/><path class="cls-2" d="M233.785,311.47l8.847-17.226,6.464-18.889,3.123-15.765-.742-1.847.42-22.719.361-3.079-3.342-16.281-.658-19.869-5.964-18.309-9.402-16.876-13.498-13.739-14.711-10.732-17.807-2.006-18.352.859-15.493,9.951-12.144,14.318-6.025,19.637-8.129,17.654-1.698,20.44-4.76,18.972,3.59,19.458,2.568,19.935,5.49,18.39,11.228,16.094,11.347,15.127,16.07,8.862,16.981,6.158,17.146-3.573,14.877-11.608,14.213-13.339ZM195.194,234.22l-13.343-8.663-12.23,14.975-9.299-2.191,7.865-15.593,15.045-7.922,17.067,9.379,16.211,8.282,11.762-14.799,9.515,1.85-8.631,20.055-13.468,4.209-20.495-9.581Z"/><path class="cls-2" d="M503.067,183.294l-.663-34.343-2.415-35.057-.596-34.936-1.243-35.203.011-.121,2.531-29.325-29.227-1.626-35.495,2.993-.119-.004-35.814-1.245-35.4-.77-35.42.417-35.668-.222-35.405-1.069-35.608,2.292-.113-.005-35.278-1.727-35.818,4.096-.245-.033-35.377-4.712-35.389,3.25-.173-.015-35.318-2.863-28.168,3.115-1.629,27.909.259,34.507,2.892,35.405-.031.219-4.805,34.572,4.496,34.9.086,35.111-.009.17-1.841,35.112-3.162,34.484,2.712,34.873-2.553,35.137.531,34.446,2.938,35.074.995,35.462-.022.165-4.203,30.283,28.823-11.928.196-.038,35.627-6.967,34.728-12.493,37.146-3.162,36.026-4.08,72.843-4.749,37.097,2.31,71.71,8.761,37.355.665,35.83,10.799,34.543,11.246,24.386,6.325-.544-27.41-.354-34.999.021-35.002-.622-35.036.01-.212,1.79-34.95,1.015-34.964,2.331-34.353-5.033-35.156,4.834-35.326ZM286.314,102.115l21.373-8.487,22.329-3.929,23.398,3.113.348.205,19.46,11.424,18.671,13.062-7.249,10.36-18.462-12.917-16.962-9.938-18.937-2.52-19.322,3.399-18.148,7.246-17.153,14.034-8.006-9.785,18.66-15.27ZM142.995,100.827l21.919-7.403,22.425-1.681,22.074,3.093,20.826,8.696,18.297,15.014-8.021,9.775-16.861-13.837-17.608-7.352-19.113-2.68-19.481,1.461-18.63,6.291-18.491,13.222-7.354-10.285,20.021-14.314ZM400.532,277.924l-4.784,20.659-12.002,17.993-11.605,18.335-19.312,13.453-20.531,2.964,17.34,12.203-14.447,34.265-51.081-21.115-42.508-8.464,2.148-10.789,43.564,8.675,41.983,17.355,6.76-16.032-34.959-24.604-46.996-13.193,2.973-10.59,25.606,7.188-7.64-9.326-10.39-18.628-4.221-17.008-6.34,18.347-10.056,19.58-.254.236-16.202,15.171-17.424,13.595-23.54,4.907-21.718-7.96-18.884-10.412-13.15-17.537-12.473-17.88-6.43-21.83-2.611-20.27-4.005-21.654,5.301-21.127,1.663-21.122,8.891-19.306,6.355-20.923,15.058-17.755,19.934-12.805,22.747-1.063,22.14,2.493,18.619,13.69,15.059,15.327,10.889,19.62,4.988,15.317,5.103-15.388,10.789-19.035,15.558-15.81,17.378-13.116,22.477-3.479,21.563,4.688,18.134,12.213,16.867,14.391,9.931,20.651,4.698,21.332,3.035,20.159,3.487,21.087.572,22.084-8.045,20.24Z"/><polygon class="cls-1" points="336.117 232.487 319.906 224.205 302.839 214.826 287.794 222.748 279.929 238.341 289.228 240.531 301.458 225.557 314.801 234.22 335.296 243.801 348.764 239.592 357.395 219.538 347.879 217.688 336.117 232.487"/><polygon class="cls-1" points="237.788 219.538 228.272 217.688 216.51 232.487 200.299 224.205 183.232 214.826 168.187 222.748 160.322 238.341 169.621 240.531 181.851 225.557 195.194 234.22 215.689 243.801 229.156 239.592 237.788 219.538"/><path class="cls-1" d="M404.518,214.513l-3.035-20.159-4.698-21.332-9.931-20.651-16.867-14.391-18.134-12.213-21.563-4.688-22.477,3.479-17.378,13.116-15.558,15.81-10.789,19.035-5.103,15.388-4.988-15.317-10.889-19.62-15.059-15.327-18.619-13.69-22.14-2.493-22.747,1.063-19.934,12.805-15.058,17.755-6.355,20.923-8.891,19.306-1.663,21.122-5.301,21.127,4.005,21.654,2.611,20.27,6.43,21.83,12.473,17.88,13.15,17.537,18.884,10.412,21.718,7.96,23.54-4.907,17.424-13.595,16.202-15.171.254-.236,10.056-19.58,6.34-18.347,4.221,17.008,10.39,18.628,7.64,9.326-25.606-7.188-2.973,10.59,46.996,13.193,34.959,24.604-6.76,16.032-41.983-17.355-43.564-8.675-2.148,10.789,42.508,8.464,51.081,21.115,14.447-34.265-17.34-12.203,20.531-2.964,19.312-13.453,11.605-18.335,12.002-17.993,4.784-20.659,8.045-20.24-.572-22.084-3.487-21.087ZM330.4,338.826l-17.312-4.213-15.281-9.859-12.007-14.516-9.284-16.649-4.732-19.061-6.437-16.149.197-.979.283-22.259-.779-3.708,1.794-15.295,2.678-19.834,6.088-18.468,9.458-16.688,13.365-13.669,14.461-10.914,17.007-2.634,16.91,3.678,15.248,10.227,14.561,12.42,8.134,16.924,4.26,19.27,3.02,20.055,3.346,19.868.494,19.051-7.264,18.274-4.655,19.784-10.808,16.205-10.323,16.308-14.765,10.283-17.656,2.549ZM187.55,339.99l-16.981-6.158-16.07-8.862-11.347-15.127-11.228-16.094-5.49-18.39-2.568-19.935-3.59-19.458,4.76-18.972,1.698-20.44,8.129-17.654,6.025-19.637,12.144-14.318,15.493-9.951,18.352-.859,17.807,2.006,14.711,10.732,13.498,13.739,9.402,16.876,5.964,18.309.658,19.869,3.342,16.281-.361,3.079-.42,22.719.742,1.847-3.123,15.765-6.464,18.889-8.847,17.226-14.213,13.339-14.877,11.608-17.146,3.573Z"/><polygon class="cls-1" points="292.813 113.136 310.962 105.89 330.284 102.49 349.221 105.01 366.183 114.947 384.645 127.864 391.894 117.504 373.223 104.441 353.763 93.018 353.415 92.812 330.017 89.699 307.688 93.628 286.314 102.115 267.654 117.385 275.66 127.17 292.813 113.136"/><polygon class="cls-1" points="148.82 112.205 167.45 105.914 186.932 104.453 206.045 107.133 223.653 114.484 240.515 128.321 248.536 118.546 230.239 103.532 209.413 94.836 187.339 91.743 164.914 93.424 142.995 100.827 122.975 115.142 130.329 125.427 148.82 112.205"/><path class="cls-1" d="M513.536,288.821l2.397-35.308.015-.211-4.972-34.722,4.706-34.395.021-.154-.689-35.53-2.409-34.985-.597-34.889-1.219-34.551,3.594-41.646L471.286.034l-35.63,3.004-35.262-1.225-35.573-.775h-.098s-35.541.418-35.541.418l-35.403-.219-35.85-1.086-35.492,2.285-35.705-1.747-35.288,4.034L116.185.029l-.223-.029-35.716,3.278L44.638.391,4.677,4.809l-2.27,38.897-.003.065.264,35.155,2.818,34.717L.607,148.739l4.609,35.389.086,34.367-1.81,34.604L.247,288.484l2.72,34.994-2.518,34.656-.006.088.543,35.217,2.943,35.192.961,34.237-4.891,35.241,4.376,35.274-1.093,34.646,1.05,34.739-3.251,34.557-.028.315.29,35.367,1.115,41.873,42.531-1.409,35.031-1.39,35.46,4.587,35.854-.312,35.568.463h.205s35.868-1.931,35.868-1.931l22.598-1.609,16.454-.404,31.197,3.61.147.018,36.104-1.206,35.27-2.764,35.148,2.57,35.703,1.309.185.008,35.735-.745,40.721-3.096-.097-39.857-1.33-34.913-.368-34.566,3.867-35.239-3.692-35.127,1.772-34.667-.697-35.108-.353-34.87.021-35.049-.616-34.723,1.783-34.862,1.007-34.777ZM497.829,602.502l-.013.119.379,35.442,1.33,34.84.065,27.986-28.511,2.174-35.194.733-35.222-1.288-35.798-2.619-.15-.011-35.847,2.814-19.232.642-2.879-30.268-6.68-32.301-10.858-30.856-3.868-36.48,1.415-2.927,30.611,39.397,18.589-40.619,9.208-32.884,2.031-37.404-8.339-28.11,27.435,3.351,36.588.685,34.028,10.254,34.594,11.265,27.962,7.263-1.508,29.518,3.652,34.759-3.789,34.526ZM186.846,704.199l-35.484-.46-35.121.305-35.488-4.592-.168-.021-36.054,1.432-29.795.987-.774-29.06-.283-34.612,3.258-34.627.034-.384-1.062-35.129,1.112-35.234-3.146-25.367,31.919-13.207,35.057-6.855,34.55-12.352,35.678-3.039,35.802-4.06,1.013-.066-9.394,31.128,2.195,37.262,9.53,31.95,18.782,43.078,25.67-37.567,2.94,7.798-9.141,27.282-.058.171-4.711,32.601-9.062,30.95-4.898,30.456-22.901,1.233ZM213.128,493.144l21.74,22.987,17.131,17.022-22.674,26.093-17.881,26.099-9.237-21.124-9.002-30.178-1.977-33.561,6.492-21.513,15.407,14.174ZM304.73,484.758l-23.454,21.262-19.211,19.348-18.165-18.047-21.755-23.006-18.956-17.454,55.528-3.619,35.733,2.215,26.857,3.281-16.578,16.021ZM271.948,533.323l17.927-18.065,23.5-21.308,14.899-14.398,6.213,20.944-1.782,33.642-8.421,30.348-9.716,21.229-19.43-25.003-23.19-27.389ZM247.983,573.23l-4.095-10.858,16.77-19.65,16.814,18.009-4.926,10.195-24.563,2.305ZM226.869,675.671l9.074-30.995,4.802-32.784,8.731-26.06,24.401-.923,2.923,27.574.025.234,10.983,31.033,6.419,30.858,2.321,24.403-22.55.947-11.4.28-4.38-.507-13.136.937-1.012.024-20.892-1.879,3.688-23.145ZM500.936,288.129l-1.015,34.964-1.79,34.95-.01.212.622,35.036-.021,35.002.354,34.999.544,27.41-24.386-6.325-34.543-11.246-35.83-10.799-37.355-.665-71.71-8.761-37.097-2.31-72.843,4.749-36.026,4.08-37.146,3.162-34.728,12.493-35.627,6.967-.196.038-28.823,11.928,4.203-30.283.022-.165-.995-35.462-2.938-35.074-.531-34.446,2.553-35.137-2.712-34.873,3.162-34.484,1.841-35.112.009-.17-.086-35.111-4.496-34.9,4.805-34.572.031-.219-2.892-35.405-.259-34.507,1.629-27.909,28.168-3.115,35.318,2.863.173.015,35.389-3.25,35.377,4.712.245.033,35.818-4.096,35.278,1.727.113.005,35.608-2.292,35.405,1.069,35.668.222,35.42-.417,35.4.77,35.814,1.245.119.004,35.495-2.993,29.227,1.626-2.531,29.325-.011.121,1.243,35.203.596,34.936,2.415,35.057.663,34.343-4.834,35.326,5.033,35.156-2.331,34.353Z"/></g></svg>